<svg width="48" height="48" viewBox="0 0 48 48" fill="none" xmlns="http://www.w3.org/2000/svg">
<path d="M14.6851 5L11.9911 3L7.68063 5L7.68063 23.5" stroke="#0048DA" stroke-width="3" stroke-linecap="round"/>
<path d="M1.5 26.5C1.5 25.3954 2.39543 24.5 3.5 24.5H44.5C45.6046 24.5 46.5 25.3954 46.5 26.5C46.5 27.6046 45.6046 28.5 44.5 28.5H3.5C2.39543 28.5 1.5 27.6046 1.5 26.5Z" stroke="#152C5B" stroke-width="3"/>
<path d="M18.6583 3.7908C18.459 3.69253 18.2147 3.72472 18.054 3.87045L13.6782 7.83819C13.5231 7.97884 13.4795 8.19487 13.5691 8.37917L15.3869 12.1188C15.5333 12.42 15.9545 12.4997 16.2136 12.2754L22.8131 6.56024C23.073 6.33524 23.0151 5.93846 22.6998 5.78304L18.6583 3.7908Z" stroke="#0048DA" stroke-width="3"/>
<path d="M4.5 36C4.5 38.4853 6.51472 40.5 9 40.5H39C41.4853 40.5 43.5 38.4853 43.5 36V28.5H4.5V36Z" stroke="#152C5B" stroke-width="3"/>
<path d="M9 41H11V43H9V41Z" stroke="#152C5B" stroke-width="2"/>
<path d="M37 41H39V43H37V41Z" stroke="#152C5B" stroke-width="2"/>
</svg>
