<svg width="48" height="48" viewBox="0 0 48 48" fill="none" xmlns="http://www.w3.org/2000/svg">
<path d="M16 26V33" stroke="#0048DA" stroke-width="3" stroke-linecap="round"/>
<path d="M15 44V45" stroke="#152C5B" stroke-width="3" stroke-linecap="round"/>
<path d="M15 44V45" stroke="#152C5B" stroke-width="3" stroke-linecap="round"/>
<path d="M15 44V45" stroke="#152C5B" stroke-width="3" stroke-linecap="round"/>
<path d="M33 44V45" stroke="#152C5B" stroke-width="3" stroke-linecap="round"/>
<path d="M33 44V45" stroke="#152C5B" stroke-width="3" stroke-linecap="round"/>
<path d="M33 44V45" stroke="#152C5B" stroke-width="3" stroke-linecap="round"/>
<path d="M16 8V12" stroke="#0048DA" stroke-width="3" stroke-linecap="round"/>
<path d="M11.5 3C11.5 2.72386 11.7239 2.5 12 2.5H36C36.2761 2.5 36.5 2.72386 36.5 3V17C36.5 17.2761 36.2761 17.5 36 17.5H12C11.7239 17.5 11.5 17.2761 11.5 17V3Z" stroke="#152C5B" stroke-width="3"/>
<path d="M11.5 18C11.5 17.7239 11.7239 17.5 12 17.5H36C36.2761 17.5 36.5 17.7239 36.5 18V42C36.5 42.2761 36.2761 42.5 36 42.5H12C11.7239 42.5 11.5 42.2761 11.5 42V18Z" stroke="#152C5B" stroke-width="3"/>
</svg>
