<svg width="23" height="20" viewBox="0 0 23 20" fill="none" xmlns="http://www.w3.org/2000/svg">
<path d="M10 9H8C7.44772 9 7 9.44772 7 10V11C7 11.5523 7.44772 12 8 12H10C10.5523 12 11 11.5523 11 11V10C11 9.44772 10.5523 9 10 9Z" fill="white"/>
<path d="M15 9H13C12.4477 9 12 9.44772 12 10V11C12 11.5523 12.4477 12 13 12H15C15.5523 12 16 11.5523 16 11V10C16 9.44772 15.5523 9 15 9Z" fill="white"/>
<path d="M10 13H8C7.44772 13 7 13.4477 7 14V15C7 15.5523 7.44772 16 8 16H10C10.5523 16 11 15.5523 11 15V14C11 13.4477 10.5523 13 10 13Z" fill="white"/>
<path d="M15 13H13C12.4477 13 12 13.4477 12 14V15C12 15.5523 12.4477 16 13 16H15C15.5523 16 16 15.5523 16 15V14C16 13.4477 15.5523 13 15 13Z" fill="white"/>
<path d="M1 7H22" stroke="white" stroke-width="2"/>
<path d="M4 1V4" stroke="white" stroke-width="2" stroke-linecap="round"/>
<path d="M19 1V4" stroke="white" stroke-width="2" stroke-linecap="round"/>
<path d="M21 3H2C1.44772 3 1 3.44772 1 4V18C1 18.5523 1.44772 19 2 19H21C21.5523 19 22 18.5523 22 18V4C22 3.44772 21.5523 3 21 3Z" stroke="white" stroke-width="2"/>
</svg>
