<svg width="48" height="48" viewBox="0 0 48 48" fill="none" xmlns="http://www.w3.org/2000/svg">
<circle cx="24" cy="26" r="5" fill="#0048DA"/>
<path d="M24.4777 2.62806L28.6422 16.1081C29.0953 17.5747 30.4513 18.575 31.9863 18.575H45.6692C46.1475 18.575 46.3528 19.1819 45.9728 19.4723L34.7324 28.0613C33.5671 28.9517 33.0805 30.4742 33.5134 31.8755L37.7655 45.6388C37.9092 46.1039 37.371 46.4792 36.9842 46.1837L26.1251 37.886C24.8705 36.9274 23.1295 36.9274 21.8749 37.886L11.0158 46.1837C10.629 46.4792 10.0908 46.1039 10.2345 45.6388L14.4866 31.8755C14.9195 30.4742 14.4329 28.9517 13.2676 28.0613L2.0272 19.4723C1.6472 19.1819 1.85255 18.575 2.33078 18.575H16.0137C17.5487 18.575 18.9046 17.5747 19.3578 16.1081L23.5223 2.62806C23.6674 2.15818 24.3326 2.15818 24.4777 2.62806Z" stroke="#152C5B" stroke-width="3" stroke-linecap="round" stroke-linejoin="round"/>
</svg>
