<svg width="26" height="25" viewBox="0 0 26 25" fill="none" xmlns="http://www.w3.org/2000/svg">
<path d="M12.0489 1.26055C12.3483 0.339236 13.6517 0.339236 13.951 1.26055L16.218 8.23759C16.3519 8.64961 16.7358 8.92857 17.169 8.92857L24.5051 8.92857C25.4739 8.92857 25.8766 10.1682 25.0929 10.7376L19.1579 15.0496C18.8074 15.3043 18.6608 15.7556 18.7946 16.1677L21.0616 23.1447C21.361 24.066 20.3065 24.8321 19.5228 24.2627L13.5877 19.9507C13.2373 19.696 12.7627 19.696 12.4122 19.9507L6.47715 24.2627C5.69344 24.8321 4.63896 24.066 4.93831 23.1447L7.20529 16.1677C7.33916 15.7556 7.1925 15.3043 6.84202 15.0496L0.90699 10.7376C0.123276 10.1682 0.526052 8.92857 1.49478 8.92857L8.83087 8.92857C9.2641 8.92857 9.64805 8.64961 9.78193 8.23759L12.0489 1.26055Z" fill="#F0D800"/>
</svg>
